<svg width="80" height="84" viewBox="0 0 80 84" fill="none" xmlns="http://www.w3.org/2000/svg">
<path d="M77.5883 4.81354L76.0998 4.99871L77.5883 4.81354ZM34.1339 69.1869L33.926 67.7014L33.926 67.7014L34.1339 69.1869ZM0.617521 72.8054C0.118553 73.4667 0.250156 74.4072 0.911459 74.9062L11.6881 83.0373C12.3494 83.5363 13.2899 83.4047 13.7889 82.7434C14.2879 82.0821 14.1563 81.1415 13.495 80.6425L3.91578 73.4149L11.1434 63.8357C11.6424 63.1744 11.5108 62.2338 10.8495 61.7348C10.1882 61.2359 9.2476 61.3675 8.74864 62.0288L0.617521 72.8054ZM39.2451 67.8987L39.7662 69.3053L39.7662 69.3053L39.2451 67.8987ZM75.6254 1.18518L76.0998 4.99871L79.0768 4.62837L78.6024 0.814839L75.6254 1.18518ZM33.926 67.7014L1.60707 72.2233L2.02277 75.1943L34.3417 70.6724L33.926 67.7014ZM38.7241 66.4921C37.1729 67.0667 35.5642 67.4722 33.926 67.7014L34.3417 70.6724C36.1938 70.4133 38.0125 69.9549 39.7662 69.3053L38.7241 66.4921ZM76.0998 4.99871C79.4196 31.686 63.9424 57.1503 38.7241 66.4921L39.7662 69.3053C66.29 59.4799 82.5685 32.6973 79.0768 4.62837L76.0998 4.99871Z" fill="#A0B8CD"/>
</svg>
