<svg width="262" height="63" viewBox="0 0 262 63" fill="none" xmlns="http://www.w3.org/2000/svg">
<path d="M36.5617 34.733L35.7139 33.4955L35.7139 33.4955L36.5617 34.733ZM88.2258 8.44919L88.7388 9.85874L88.7388 9.85874L88.2258 8.44919ZM211.656 21.8987L210.992 23.244L210.992 23.244L211.656 21.8987ZM222 27L222.813 25.7393L222.741 25.6927L222.663 25.6547L222 27ZM260.317 52.9662C261.126 52.7913 261.641 51.993 261.466 51.1833L258.616 37.9876C258.441 37.1779 257.643 36.6632 256.833 36.8381C256.023 37.013 255.509 37.8113 255.684 38.621L258.217 50.3505L246.488 52.8841C245.678 53.059 245.163 53.8572 245.338 54.6669C245.513 55.4767 246.311 55.9913 247.121 55.8164L260.317 52.9662ZM156.692 4.46325L156.925 2.98151L156.692 4.46325ZM2.00011 61C1.52454 59.5773 1.52577 59.5769 1.52697 59.5765C1.52733 59.5764 1.52853 59.576 1.52927 59.5758C1.53077 59.5753 1.53219 59.5748 1.53353 59.5744C1.53621 59.5735 1.5386 59.5727 1.54072 59.5721C1.54494 59.5707 1.54821 59.5697 1.55069 59.569C1.55535 59.5676 1.5583 59.5668 1.5606 59.5662C1.56261 59.5657 1.56726 59.5646 1.57495 59.5631C1.58195 59.5618 1.59876 59.5588 1.62405 59.5564C1.63628 59.5553 1.82359 59.5326 2.07186 59.6157C2.40514 59.7272 2.87762 60.0611 2.98238 60.6898C3.02206 60.9279 2.98818 61.116 2.96163 61.2171C2.93463 61.32 2.90206 61.3831 2.89432 61.3977C2.88135 61.4221 2.90418 61.3741 3.02295 61.2337C3.25592 60.9582 3.71223 60.4965 4.54211 59.7699C7.86324 56.8622 16.4315 50.3429 37.4095 35.9704L35.7139 33.4955C14.7535 47.856 6.04099 54.4703 2.56592 57.5128C1.69675 58.2738 1.1093 58.8507 0.732346 59.2964C0.546151 59.5165 0.372474 59.7497 0.243772 59.9924C0.139424 60.1893 -0.0684449 60.633 0.023175 61.1829C0.146073 61.9204 0.689797 62.3167 1.11972 62.4606C1.46464 62.576 1.77402 62.5556 1.90604 62.5432C2.06972 62.5277 2.20928 62.4966 2.2944 62.4751C2.3405 62.4634 2.37975 62.4523 2.40977 62.4433C2.42492 62.4388 2.43813 62.4347 2.44912 62.4312C2.45463 62.4295 2.45961 62.4279 2.46404 62.4264C2.46626 62.4257 2.46834 62.425 2.47028 62.4244C2.47124 62.4241 2.4726 62.4236 2.47308 62.4234C2.47439 62.423 2.47568 62.4226 2.00011 61ZM37.4095 35.9704C55.4265 23.6265 73.7449 15.3155 88.7388 9.85874L87.7128 7.03963C72.5459 12.5594 53.9882 20.9754 35.7139 33.4955L37.4095 35.9704ZM210.992 23.244L221.337 28.3453L222.663 25.6547L212.319 20.5534L210.992 23.244ZM221.187 28.2607L259.187 52.7607L260.813 50.2393L222.813 25.7393L221.187 28.2607ZM156.458 5.94499C175.405 8.92865 193.791 14.761 210.992 23.244L212.319 20.5534C194.846 11.9365 176.17 6.01223 156.925 2.98151L156.458 5.94499ZM88.7388 9.85874C110.265 2.02455 133.597 2.3448 156.458 5.94499L156.925 2.98151C133.82 -0.657061 109.913 -1.03983 87.7128 7.03963L88.7388 9.85874Z" fill="#A0B8CD"/>
</svg>
